<?xml version="1.0" encoding="UTF-8" ?>
<svg version="1.1" width="180" height="260" xmlns="http://www.w3.org/2000/svg" shape-rendering="crispEdges">
<rect x="30" y="0" width="120" height="60" fill="#DBE7F2" />
<rect x="20" y="10" width="10" height="150" fill="#DBE7F2" />
<rect x="150" y="10" width="10" height="150" fill="#DBE7F2" />
<rect x="10" y="20" width="10" height="100" fill="#DBE7F2" />
<rect x="160" y="20" width="10" height="100" fill="#DBE7F2" />
<rect x="0" y="30" width="10" height="80" fill="#DBE7F2" />
<rect x="170" y="30" width="10" height="80" fill="#DBE7F2" />
<rect x="30" y="60" width="20" height="10" fill="#DBE7F2" />
<rect x="50" y="60" width="10" height="20" fill="#FBEBDF" />
<rect x="60" y="60" width="60" height="10" fill="#DBE7F2" />
<rect x="120" y="60" width="10" height="20" fill="#FBEBDF" />
<rect x="130" y="60" width="20" height="10" fill="#DBE7F2" />
<rect x="30" y="70" width="10" height="10" fill="#DBE7F2" />
<rect x="40" y="70" width="10" height="10" fill="#FBEBDF" />
<rect x="60" y="70" width="10" height="10" fill="#FBEBDF" />
<rect x="70" y="70" width="40" height="10" fill="#DBE7F2" />
<rect x="110" y="70" width="10" height="10" fill="#FBEBDF" />
<rect x="130" y="70" width="10" height="10" fill="#FBEBDF" />
<rect x="140" y="70" width="10" height="10" fill="#DBE7F2" />
<rect x="30" y="80" width="10" height="30" fill="#FBEBDF" />
<rect x="40" y="80" width="30" height="10" fill="#375885" />
<rect x="70" y="80" width="10" height="70" fill="#FBEBDF" />
<rect x="80" y="80" width="20" height="30" fill="#DBE7F2" />
<rect x="100" y="80" width="10" height="30" fill="#FBEBDF" />
<rect x="110" y="80" width="30" height="10" fill="#375885" />
<rect x="140" y="80" width="10" height="30" fill="#FBEBDF" />
<rect x="40" y="90" width="10" height="10" fill="#375885" />
<rect x="50" y="90" width="10" height="20" fill="#82CBF0" />
<rect x="60" y="90" width="10" height="10" fill="#375885" />
<rect x="110" y="90" width="10" height="10" fill="#375885" />
<rect x="120" y="90" width="10" height="20" fill="#82CBF0" />
<rect x="130" y="90" width="10" height="10" fill="#375885" />
<rect x="40" y="100" width="10" height="20" fill="#5388CA" />
<rect x="60" y="100" width="10" height="20" fill="#5388CA" />
<rect x="110" y="100" width="10" height="20" fill="#5388CA" />
<rect x="130" y="100" width="10" height="20" fill="#5388CA" />
<rect x="0" y="110" width="10" height="120" fill="#8B8FBA" />
<rect x="30" y="110" width="10" height="20" fill="#F5B8CE" />
<rect x="50" y="110" width="10" height="10" fill="#5388CA" />
<rect x="80" y="110" width="20" height="40" fill="#FBEBDF" />
<rect x="100" y="110" width="10" height="10" fill="#DBE7F2" />
<rect x="120" y="110" width="10" height="10" fill="#5388CA" />
<rect x="140" y="110" width="10" height="20" fill="#F5B8CE" />
<rect x="170" y="110" width="10" height="120" fill="#8B8FBA" />
<rect x="10" y="120" width="10" height="70" fill="#8B8FBA" />
<rect x="40" y="120" width="10" height="10" fill="#F5B8CE" />
<rect x="50" y="120" width="20" height="30" fill="#FBEBDF" />
<rect x="100" y="120" width="30" height="30" fill="#FBEBDF" />
<rect x="130" y="120" width="10" height="10" fill="#F5B8CE" />
<rect x="160" y="120" width="10" height="70" fill="#8B8FBA" />
<rect x="30" y="130" width="20" height="10" fill="#FBEBDF" />
<rect x="130" y="130" width="20" height="10" fill="#FBEBDF" />
<rect x="30" y="140" width="10" height="10" fill="#D18D99" />
<rect x="40" y="140" width="10" height="10" fill="#FBEBDF" />
<rect x="130" y="140" width="10" height="10" fill="#FBEBDF" />
<rect x="140" y="140" width="10" height="10" fill="#D18D99" />
<rect x="30" y="150" width="10" height="10" fill="#8B8FBA" />
<rect x="40" y="150" width="100" height="10" fill="#D18D99" />
<rect x="140" y="150" width="10" height="10" fill="#8B8FBA" />
<rect x="20" y="160" width="10" height="20" fill="#8B8FBA" />
<rect x="30" y="160" width="10" height="10" fill="#DBE7F2" />
<rect x="40" y="160" width="10" height="10" fill="#F2FAFC" />
<rect x="50" y="160" width="10" height="10" fill="#354A77" />
<rect x="60" y="160" width="20" height="10" fill="#6482A6" />
<rect x="80" y="160" width="20" height="10" fill="#F5B8CE" />
<rect x="100" y="160" width="20" height="10" fill="#6482A6" />
<rect x="120" y="160" width="10" height="10" fill="#354A77" />
<rect x="130" y="160" width="10" height="10" fill="#F2FAFC" />
<rect x="140" y="160" width="10" height="10" fill="#DBE7F2" />
<rect x="150" y="160" width="10" height="20" fill="#8B8FBA" />
<rect x="30" y="170" width="10" height="10" fill="#F2FAFC" />
<rect x="40" y="170" width="10" height="10" fill="#354A77" />
<rect x="50" y="170" width="10" height="10" fill="#1D2A4C" />
<rect x="60" y="170" width="10" height="40" fill="#354A77" />
<rect x="70" y="170" width="10" height="10" fill="#6482A6" />
<rect x="80" y="170" width="20" height="10" fill="#8765A2" />
<rect x="100" y="170" width="10" height="10" fill="#6482A6" />
<rect x="110" y="170" width="10" height="40" fill="#354A77" />
<rect x="120" y="170" width="10" height="10" fill="#1D2A4C" />
<rect x="130" y="170" width="10" height="10" fill="#354A77" />
<rect x="140" y="170" width="10" height="10" fill="#F2FAFC" />
<rect x="20" y="180" width="20" height="10" fill="#D18D99" />
<rect x="40" y="180" width="10" height="10" fill="#1D2A4C" />
<rect x="50" y="180" width="10" height="30" fill="#354A77" />
<rect x="70" y="180" width="10" height="30" fill="#354A77" />
<rect x="80" y="180" width="20" height="10" fill="#3C3A3D" />
<rect x="100" y="180" width="10" height="30" fill="#354A77" />
<rect x="120" y="180" width="10" height="30" fill="#354A77" />
<rect x="130" y="180" width="10" height="10" fill="#1D2A4C" />
<rect x="140" y="180" width="20" height="10" fill="#D18D99" />
<rect x="10" y="190" width="10" height="20" fill="#D18D99" />
<rect x="20" y="190" width="20" height="20" fill="#FBEBDF" />
<rect x="40" y="190" width="10" height="20" fill="#D18D99" />
<rect x="80" y="190" width="20" height="30" fill="#1D2A4C" />
<rect x="130" y="190" width="10" height="20" fill="#D18D99" />
<rect x="140" y="190" width="20" height="20" fill="#FBEBDF" />
<rect x="160" y="190" width="10" height="20" fill="#D18D99" />
<rect x="10" y="210" width="10" height="30" fill="#8B8FBA" />
<rect x="20" y="210" width="20" height="10" fill="#D18D99" />
<rect x="40" y="210" width="20" height="10" fill="#8F6666" />
<rect x="60" y="210" width="20" height="10" fill="#6581A6" />
<rect x="100" y="210" width="20" height="10" fill="#6581A6" />
<rect x="120" y="210" width="20" height="10" fill="#8F6666" />
<rect x="140" y="210" width="20" height="10" fill="#D18D99" />
<rect x="160" y="210" width="10" height="30" fill="#8B8FBA" />
<rect x="20" y="220" width="10" height="30" fill="#8B8FBA" />
<rect x="30" y="220" width="10" height="30" fill="#8F6666" />
<rect x="40" y="220" width="20" height="30" fill="#E1A8A8" />
<rect x="60" y="220" width="10" height="30" fill="#8F6666" />
<rect x="70" y="220" width="40" height="20" fill="#CAE2E2" />
<rect x="110" y="220" width="10" height="30" fill="#8F6666" />
<rect x="120" y="220" width="20" height="30" fill="#E1A8A8" />
<rect x="140" y="220" width="10" height="30" fill="#8F6666" />
<rect x="150" y="220" width="10" height="30" fill="#8B8FBA" />
<rect x="70" y="240" width="40" height="10" fill="#6E7E8F" />
<rect x="40" y="250" width="20" height="10" fill="#8F6666" />
<rect x="120" y="250" width="20" height="10" fill="#8F6666" />
</svg>